Simulation
nRows=27
nColumns=15
endheader
time  TH_x TH_y TH_z SC_y  SC_z  SC_x  AC_y  AC_z  AC_x  GH_y  GH_z  GH_yy  EL_x  PS_y
5.382082397003745  0.000000  0.000000  0.000000  -36.109476886071725  11.509079562971097  21.136745754803886  55.82580038260385  18.76481305909377  15.341866769976273  -2.2067610602935726  58.44712139176735  6.119262551258983  13.64109353844525  120.000000
5.422247191011236  0.000000  0.000000  0.000000  -36.175864348773906  11.527651764423249  21.373188010436113  55.89707488199417  18.67172235167237  15.383012405551716  -2.2097517232552333  58.37681283012062  6.201582142458729  13.643286207876942  120.000000
5.4624119850187265  0.000000  0.000000  0.000000  -36.11557069179381  11.510445195869277  21.423962632829276  55.8820598996025  18.576674679299977  15.23840166216667  -2.025253890209179  58.06778911083425  6.292520149698056  13.534755523217493  120.000000
5.502576779026217  0.000000  0.000000  0.000000  -35.925580562384305  11.451877602507071  21.287013570791657  55.78251958506803  18.480052711206323  14.901870669937583  -1.6602389299655789  57.48498231814008  6.358658339511396  13.343334142383705  120.000000
5.542741573033708  0.000000  0.000000  0.000000  -35.607497102735934  11.345796570265753  20.96461437718056  55.60385685947675  18.382657123066444  14.375826566510012  -1.129047960802749  56.594890487621434  6.361111025052231  13.107178534645456  120.000000
5.582906367041199  0.000000  0.000000  0.000000  -35.16775859843493  11.186003551667616  20.462311601360035  55.353675940617684  18.28558753274275  13.669815005636597  -0.44846324803985416  55.37213580579525  6.263463287536617  12.865998652236518  120.000000
5.623071161048689  0.000000  0.000000  0.000000  -34.61760228625603  10.966344156627649  19.788659241191553  55.04114060390471  18.190250232758828  12.799238321931787  0.36681834556540005  53.805309822700615  6.039331754986015  12.652945911639373  120.000000
5.66323595505618  0.000000  0.000000  0.000000  -33.97313594895083  10.681214993481303  18.955283031847447  54.67813916983857  18.097790537901325  11.784586779269198  1.3073559025519739  51.90124931243156  5.677642500319429  12.488455667712298  120.000000
5.70340074906367  0.000000  0.000000  0.000000  -33.25587509319328  10.327315046579557  17.97659675291973  54.28206527956882  18.007046363897917  10.651541013492283  2.3696702579729982  49.68724988396539  5.183987684263463  12.378313883697674  120.000000
5.743565543071161  0.000000  0.000000  0.000000  -32.4933295287334  9.906170655244871  16.868987384733877  53.878235683314436  17.9114056148788  9.431918158407473  3.55408528574372  47.21065234771954  4.578192100987612  12.31658482494281  120.000000
5.7837303370786515  0.000000  0.000000  0.000000  -31.718465408310582  9.426225515992842  15.650098093194233  53.498910780312464  17.796150807394707  8.165015286162605  4.86084714372475  44.535001453129425  3.8905442983681855  12.290672791830636  120.000000
5.823895131086142  0.000000  0.000000  0.000000  -30.96617475351021  8.902378953960802  14.339239744780183  53.17678743970594  17.639406866852667  6.8975520782697375  6.286094863275379  41.731714967659144  3.158817127698901  12.285685227630823  120.000000
5.864059925093633  0.000000  0.000000  0.000000  -30.267532874255345  8.353384441449565  12.958908889092935  52.93496624511412  17.417549807117194  5.681149212343134  7.8191335641980055  38.868011949870244  2.4259975061743844  12.287806360542408  120.000000
5.904224719101124  0.000000  0.000000  0.000000  -29.644703533314022  7.7995371075267546  11.53625910139364  52.779305373795154  17.11283492237365  4.56688744821262  9.443872853214398  35.995172149622206  1.736490616010135  12.286494026627732  120.000000
5.944389513108614  0.000000  0.000000  0.000000  -29.10646316644412  7.260384695329175  10.10293156770213  52.6976685492928  16.720397279787626  3.5973256604544694  11.144233840119151  33.14307355419889  1.1291789760618034  12.27492755645534  120.000000
5.984554307116105  0.000000  0.000000  0.000000  -28.647056239837855  6.753594089646767  8.693234188185667  52.6676913921739  16.250703300706153  2.8009071832933983  12.905783372888811  30.32153651190432  0.633425635848024  12.249088771297082  120.000000
6.024719101123596  0.000000  0.000000  0.000000  -28.251114214450116  6.294932042049885  7.341206138172493  52.66639215011599  15.72658964218762  2.189461935124673  14.719151262375568  27.526636079326362  0.26450648104556146  12.206914373474136  120.000000
6.064883895131086  0.000000  0.000000  0.000000  -27.90038418487226  5.896703170707654  6.077591493995312  52.67590000113685  15.177737024525541  1.7574585482099245  16.587812545060615  24.750545661187342  0.015198277619843012  12.149125796985874  120.000000
6.1050486891385765  0.000000  0.000000  0.000000  -27.57949414775525  5.565520896333533  4.9275761964785785  52.68627628730696  14.63488098997781  1.4846865896540442  18.53577478220293  21.991182749052292  -0.1516957603012287  12.080473449523469  120.000000
6.145213483146067  0.000000  0.000000  0.000000  -27.280186381702215  5.301201972214522  3.9097998037870054  52.69559482477322  14.124940811899345  1.3412205475875532  20.617377092417676  19.258380480701984  -0.3112883644837256  12.010153272131575  120.000000
6.185378277153558  0.000000  0.000000  0.000000  -27.002440561643077  5.097129538152159  3.0361070232758145  52.708097881932154  13.668625263620092  1.2931182868701487  22.929918461817355  16.57494306889208  -0.586324276843743  11.951035997546867  120.000000
6.225543071161049  0.000000  0.000000  0.000000  -26.752658095631038  4.942348318290532  2.311875326870038  52.73175695730454  13.279642301690295  1.3077458395545323  25.63612825797036  13.973745307710555  -1.1661361388225955  11.917764950902445  120.000000
6.265707865168539  0.000000  0.000000  0.000000  -26.539699282616485  4.8245745714258845  1.7384246697876364  52.776325863361485  12.963166807156671  1.3568057058770215  29.008865931679622  11.493333306420295  -2.3485805692835107  11.925422341108032  120.000000
6.30587265917603  0.000000  0.000000  0.000000  -26.369921253109457  4.732905006300288  1.3145971438444861  52.85186842505247  12.715218102865004  1.4183103166680386  33.526957227151286  9.175154787716046  -4.634200962219554  11.988336784768252  120.000000
6.346037453183521  0.000000  0.000000  0.000000  -26.243033138313272  4.659662846538967  1.0357040438293859  52.967586009686116  12.524000816826103  1.4787125586094811  40.088755756086826  7.066446368536353  -8.93976710243339  12.119024844075119  120.000000
6.386202247191012  0.000000  0.000000  0.000000  -26.15063677575705  4.600722174751176  0.8926964091544288  53.13095105619038  12.371863872188209  1.5330076958527339  50.47593174628117  5.236203862187696  -17.062083163093195  12.328077568096749  120.000000
6.426367041198501  0.000000  0.000000  0.000000  -26.07795152950087  4.55478721142079  0.8717718876207006  53.346212873367556  12.237607960197963  1.583210020381708  68.02731303698948  3.8205800550543554  -32.355186234664096  12.624055084919782  120.000000
